<svg width="296" height="242" viewBox="0 0 296 242" fill="none" xmlns="http://www.w3.org/2000/svg">
<path d="M273.814 158.327C265.197 159.689 261.523 153.846 260.516 147.461C259.313 139.848 262.174 125.278 261.044 118.112C260.462 114.417 258.801 112.615 256.115 113.039C252.088 113.676 249.809 118.857 249.013 124.72L247.078 161.865L230.966 164.413L231.302 157.993C226.986 164.648 221.483 166.6 217.532 167.224C211.265 168.213 206.673 165.268 204.943 158.656C202.288 164.354 197.841 170.336 189.895 171.592C183.383 172.621 176.574 170.16 173.428 161.071C168.423 169.961 159.7 175.726 152.781 177.876C147.695 179.455 143.56 179.915 139.316 179.76C132.275 179.772 127.163 176.94 124.848 171.335C120.364 181.098 113.621 183.648 109.002 184.378C102.624 185.385 98.012 182.327 96.2488 175.493C92.0999 185.557 86.0637 188.004 81.366 188.747C74.7928 189.785 69.014 186.725 67.3822 177.763C61.6291 188.888 49.9465 194.861 41.486 196.197C24.9263 198.817 15.8168 192.682 12.6351 172.526C9.43769 152.257 13.1821 112.761 42.4954 108.126C53.0124 106.464 61.8342 109.316 63.5487 120.177C64.4846 126.111 63.0467 130.815 57.3415 131.716C55.5525 132.001 53.0207 131.943 50.5054 129.813C52.9775 128.045 54.6975 122.956 54.0255 118.699C53.461 115.117 51.1572 112.149 46.124 112.946C33.8152 114.89 27.4986 146.075 31.1014 168.918C32.7286 179.22 36.5438 185.962 47.286 184.265C55.7887 182.92 62.9006 177.65 67.0072 170.207C67.0127 170.064 67.0136 169.928 67.0209 169.782L68.9561 132.634L85.0681 130.09L83.0198 169.435C82.9739 170.589 83.0189 171.616 83.1789 172.622C83.5843 175.198 84.7987 177.071 87.2606 176.681C91.6237 175.993 93.8622 171.28 94.6574 165.414L96.5935 128.267L112.705 125.721L110.656 165.067C110.551 166.574 110.617 167.714 110.775 168.72C111.27 171.855 112.882 172.632 116.016 172.138C120.38 171.446 122.729 166.716 123.522 160.85L123.524 160.849L126.05 104.813C133.094 105.079 138.453 102.75 142.414 98.6048L141.452 124.047C145.599 120.52 147.896 119.815 150.135 119.46C157.963 118.222 164.115 122.301 166.356 136.522C167.424 143.279 167.124 153.421 163.34 162.178C166.81 159.951 169.696 156.95 171.863 153.434C170.406 138.161 176.301 115.096 194.74 112.181C201.119 111.173 204.193 113.21 204.705 116.459L204.828 117.243L205.123 111.114L221.234 108.565L219.186 147.912C219.081 149.42 219.145 150.559 219.305 151.565C219.799 154.703 221.52 156.151 224.653 155.656C229.007 154.968 231.25 149.579 232.048 143.723L233.992 106.55L250.102 104.002L249.793 110.02C253.64 103.904 258.422 102.232 261.893 101.683C269.054 100.55 274.896 103.414 276.309 112.371C277.74 121.44 274.508 135.841 275.498 142.109C275.939 144.91 277.356 146.636 280.715 146.104C282.615 145.805 283.701 145.406 284.301 144.851C284.569 153.074 279.744 157.391 273.814 158.327ZM148.001 213.427C127.961 213.425 109.414 207.036 94.2787 196.186C94.8643 195.811 95.4481 195.411 96.0254 194.974C96.3839 194.707 96.7388 194.429 97.0881 194.14C100.152 195.594 103.528 196.3 106.703 196.264C107.22 196.264 107.731 196.232 108.242 196.199C120.103 202.494 133.627 206.064 148.001 206.065C171.484 206.063 192.711 196.55 208.104 181.152C208.927 180.329 209.727 179.486 210.515 178.63C212.099 178.965 213.692 179.127 215.24 179.109C216.626 179.109 217.999 178.994 219.351 178.779C219.622 178.739 219.906 178.69 220.191 178.638C203.268 199.839 177.222 213.425 148.001 213.427ZM140.054 79.0483C140.109 79.5672 140.106 80.0852 140.101 80.6032C140.036 89.4706 136.949 96.5347 128.37 96.4758C122.53 96.4362 117.252 93.1176 117.323 83.3863C117.372 76.8209 119.885 66.9911 130.191 67.0601C135.612 67.0969 138.927 69.8837 139.835 76.2256L140.252 76.2274C141.413 76.2357 142.987 75.7932 144.552 75.1114L144.682 57.0795L153.268 55.9874L153.043 87.083C153.02 90.3087 153.789 91.0622 156.112 91.0779C157.811 91.0889 159.161 89.9214 159.87 88.1715C159.549 86.7629 159.375 85.1574 159.387 83.3256C159.437 76.3011 162.601 67.28 170.881 67.3362C172.848 67.349 175.466 67.7125 176.459 70.4266L176.555 57.2975L185.14 56.2036L184.916 87.2993C184.893 90.524 185.662 91.2785 187.985 91.2941C188.52 91.2978 188.818 91.2426 189.177 91.0723C188.432 95.3855 187.468 96.876 184.132 96.8539C180.199 96.8282 178.249 94.7406 177.497 91.5103C176.227 94.1517 174.003 96.7858 169.775 96.7564C166.559 96.7343 163.165 95.3183 161.163 91.6593C158.852 95.9679 155.091 96.657 152.676 96.6404C146.54 96.599 144.422 93.0146 144.461 87.659L144.532 77.7575C143.107 78.3389 141.555 78.7732 140.054 79.0483ZM148.001 28.572C189.737 28.5738 224.998 56.2809 236.441 94.3192L232.168 94.9945C231.134 95.1582 230.151 95.4637 229.23 95.8768C225.102 82.492 217.764 70.5186 208.104 60.848C192.711 45.4474 171.484 35.9351 148.001 35.9323C124.516 35.9351 103.289 45.4474 87.8959 60.848C76.9477 71.8076 68.9809 85.7251 65.2926 101.307C63.8723 100.239 62.3664 99.3371 60.8247 98.6425C60.0847 98.303 59.3391 98.0159 58.5936 97.75C68.8963 57.9582 105.016 28.5738 148.001 28.572ZM295.985 144.512C295.852 139.929 293.049 135.84 288.826 134.064C288.333 133.858 287.83 133.685 287.321 133.55C287.413 132.492 287.519 131.362 287.63 130.194C287.973 126.44 288.363 122.24 288.369 117.919C288.365 115.529 288.252 113.092 287.855 110.55C286.98 104.793 284.472 99.1549 279.96 95.2144C275.474 91.2407 269.719 89.7024 264.748 89.7475C263.144 89.7475 261.584 89.8873 260.066 90.1266C259.815 90.1661 259.553 90.2112 259.286 90.2609L263.2 84.1481L251.613 79.4872L256.784 68.1163L244.65 65.1529L248.151 53.1583L235.73 51.9548L237.49 39.5784L225.016 40.1571L225.004 27.6648L212.742 30.0146L210.948 17.6446L199.144 21.7222L195.61 9.73773L184.505 15.4503L179.302 4.0905L169.125 11.323L162.359 0.819748L153.311 9.43135L145.124 0L137.393 9.80858L127.943 1.6395L121.695 12.4482L111.179 5.70888L106.522 17.3033L95.1622 12.128L92.2001 24.268L80.215 20.7608L79.0162 33.1942L66.6495 31.4379L67.2269 43.921L54.7444 43.9358L57.0886 56.2092L44.7358 57.9968L48.8028 69.8138L36.8251 73.3496L42.5331 84.4664L31.1832 89.6702L36.6752 97.4078C30.3025 99.0289 24.6331 102.015 20.0595 105.906C11.7397 112.971 6.89397 122.356 3.96778 131.752C1.05447 141.2 0.0119511 150.902 0 159.676C0.00183863 164.978 0.392539 169.93 1.08846 174.348C2.67428 184.196 5.53979 192.587 11.5769 199.12C14.5684 202.338 18.3459 204.845 22.3826 206.352C26.4239 207.876 30.6316 208.464 34.8136 208.464C37.6166 208.463 40.4371 208.205 43.309 207.751C48.2623 206.942 53.4693 205.211 58.5651 202.405L70.9804 201.834L70.9988 214.323L83.2552 211.978L85.0515 224.341L96.8565 220.275L100.387 232.257L111.493 226.544L116.698 237.904L126.877 230.668L133.641 241.177L142.691 232.564L150.876 242L158.612 232.19L168.056 240.36L174.315 229.547L184.821 236.287L189.475 224.695L200.843 229.87L203.803 217.735L215.784 221.233L216.99 208.796L229.356 210.561L228.774 198.082L241.26 198.062L238.914 185.794L251.27 183.999L247.201 172.177L259.638 168.253C260.145 168.545 260.667 168.822 261.207 169.071C264.109 170.421 267.375 171.077 270.593 171.069C272.004 171.069 273.42 170.951 274.832 170.727C279.868 169.946 285.942 166.742 289.918 162.316C293.927 157.926 296.057 151.725 295.999 145.497C295.999 145.151 295.994 144.824 295.985 144.512ZM199.304 118.573C189.795 120.077 186.82 141.206 188.48 151.734C189.842 160.353 193.44 159.899 195.456 159.582C198.7 159.067 202.868 154.968 203.186 148.26L204.563 122.104C204.353 120.761 202.884 118.008 199.304 118.573ZM172.437 91.1892C174.163 91.1993 176.319 89.5451 176.344 86.2053L176.44 73.1333C176.206 72.4976 175.443 70.9372 173.536 70.9243C169.665 70.8986 168.125 77.8569 168.089 82.8665C168.029 91.0429 170.947 91.1782 172.437 91.1892ZM132.685 76.3498C132.697 74.737 133.298 73.9347 134.194 73.6522C133.378 71.0559 131.953 70.5278 131.059 70.5222C127.545 70.4983 126.124 77.5137 126.084 82.8692C126.035 89.7797 128.29 91.0613 130.076 91.0742C133.471 91.0972 134.936 86.3847 134.981 80.1091L134.987 79.2443C133.025 78.8275 132.677 77.6738 132.685 76.3498ZM147.362 128.048C145.794 128.295 142.079 129.455 141.077 131.105L139.411 160.52C139.332 161.451 139.359 162.366 139.484 163.149C139.995 166.397 142.199 167.998 146.227 167.362C153.498 166.212 156.841 149.617 154.989 137.859C154.121 132.373 151.39 127.412 147.362 128.048Z" fill="#2C2C2C"/>
</svg>
