<svg width="50" height="41" viewBox="0 0 50 41" fill="none" xmlns="http://www.w3.org/2000/svg">
<path d="M46.2523 26.7444C44.7968 26.9745 44.1761 25.9875 44.0061 24.9089C43.8028 23.6229 44.2862 21.1618 44.0952 19.9513C43.9969 19.3271 43.7163 19.0228 43.2627 19.0945C42.5824 19.202 42.1974 20.0772 42.0631 21.0676L41.7362 27.3421L39.0146 27.7724L39.0713 26.688C38.3422 27.8122 37.4126 28.1418 36.7453 28.2474C35.6867 28.4144 34.9109 27.917 34.6188 26.8C34.1703 27.7625 33.419 28.773 32.0769 28.9851C30.9768 29.159 29.8267 28.7433 29.2953 27.208C28.4497 28.7096 26.9764 29.6835 25.8076 30.0466C24.9484 30.3134 24.2499 30.3911 23.5331 30.3649C22.3437 30.3669 21.4802 29.8885 21.0892 28.9418C20.3318 30.5908 19.1928 31.0216 18.4126 31.1449C17.3352 31.3151 16.5561 30.7985 16.2582 29.6441C15.5574 31.3441 14.5378 31.7575 13.7442 31.8829C12.6339 32.0582 11.6578 31.5413 11.3821 30.0275C10.4103 31.9067 8.4369 32.9157 7.00777 33.1413C4.21053 33.5839 2.67176 32.5476 2.1343 29.1429C1.59421 25.7191 2.2267 19.0476 7.17828 18.2646C8.9548 17.9838 10.445 18.4655 10.7346 20.3002C10.8927 21.3026 10.6498 22.0972 9.68606 22.2494C9.38386 22.2974 8.95619 22.2876 8.53132 21.9278C8.94889 21.6293 9.23944 20.7695 9.12593 20.0504C9.03058 19.4454 8.64142 18.944 7.79121 19.0788C5.71203 19.407 4.64503 24.6749 5.25361 28.5335C5.52848 30.2736 6.17293 31.4125 7.9875 31.1259C9.42377 30.8987 10.6251 30.0085 11.3188 28.7512C11.3197 28.727 11.3199 28.7041 11.3211 28.6794L11.648 22.4045L14.3696 21.9746L14.0236 28.6208C14.0159 28.8157 14.0235 28.9892 14.0505 29.1592C14.119 29.5943 14.3241 29.9106 14.74 29.8449C15.477 29.7286 15.8551 28.9324 15.9894 27.9415L16.3165 21.6667L19.0381 21.2367L18.6919 27.8829C18.6741 28.1375 18.6853 28.33 18.712 28.5001C18.7957 29.0296 19.0679 29.1609 19.5973 29.0774C20.3344 28.9606 20.7312 28.1616 20.8652 27.1707L20.8655 27.1705L21.2923 17.7049C22.4821 17.7499 23.3873 17.3565 24.0564 16.6562L23.8939 20.9538C24.5944 20.3582 24.9824 20.2389 25.3607 20.1791C26.683 19.9699 27.7221 20.659 28.1007 23.0611C28.2811 24.2026 28.2305 25.9157 27.5911 27.3949C28.1774 27.0187 28.6648 26.5119 29.0308 25.9179C28.7849 23.338 29.7806 19.4418 32.8952 18.9495C33.9728 18.7792 34.4921 19.1234 34.5786 19.6722L34.5994 19.8046L34.6492 18.7692L37.3707 18.3387L37.0247 24.9851C37.007 25.2398 37.0177 25.4322 37.0447 25.6022C37.1281 26.1322 37.419 26.3768 37.9482 26.2932C38.6837 26.1771 39.0626 25.2667 39.1972 24.2775L39.5257 17.9984L42.247 17.5679L42.1948 18.5844C42.8447 17.5514 43.6523 17.2689 44.2387 17.1762C45.4483 16.9848 46.4351 17.4686 46.6738 18.9817C46.9156 20.5136 46.3696 22.9461 46.5368 24.0049C46.6114 24.478 46.8507 24.7695 47.4181 24.6797C47.7391 24.6292 47.9225 24.5619 48.0239 24.468C48.0691 25.8571 47.2541 26.5863 46.2523 26.7444ZM25.0001 36.0519C21.615 36.0516 18.4822 34.9722 15.9255 33.1395C16.0244 33.0762 16.123 33.0086 16.2205 32.9348C16.2811 32.8897 16.341 32.8428 16.4 32.794C16.9176 33.0395 17.4878 33.1589 18.0242 33.1527C18.1115 33.1527 18.1978 33.1472 18.2842 33.1418C20.2877 34.2051 22.5722 34.8081 25.0001 34.8083C28.9669 34.808 32.5525 33.201 35.1527 30.6C35.2917 30.4609 35.4269 30.3186 35.56 30.174C35.8276 30.2306 36.0965 30.2579 36.358 30.255C36.5922 30.255 36.8242 30.2354 37.0525 30.1992C37.0983 30.1924 37.1463 30.1841 37.1944 30.1753C34.3359 33.7566 29.9362 36.0516 25.0001 36.0519ZM23.6578 13.3528C23.6671 13.4404 23.6665 13.5279 23.6657 13.6154C23.6547 15.1133 23.1332 16.3065 21.6841 16.2966C20.6977 16.2899 19.8062 15.7293 19.8181 14.0855C19.8263 12.9765 20.2509 11.3161 21.9917 11.3277C22.9074 11.3339 23.4674 11.8047 23.6208 12.876L23.6912 12.8763C23.8873 12.8777 24.1532 12.8029 24.4175 12.6877L24.4395 9.64182L25.8899 9.45734L25.8519 14.71C25.848 15.2549 25.9778 15.3821 26.3703 15.3848C26.6572 15.3867 26.8854 15.1894 27.0051 14.8938C26.9509 14.6559 26.9214 14.3847 26.9236 14.0753C26.9319 12.8887 27.4664 11.3649 28.865 11.3744C29.1973 11.3765 29.6396 11.4379 29.8073 11.8964L29.8234 9.67865L31.2737 9.49386L31.2358 14.7465C31.2319 15.2912 31.3617 15.4187 31.7542 15.4213C31.8445 15.4219 31.8949 15.4126 31.9556 15.3839C31.8298 16.1124 31.6669 16.3642 31.1033 16.3605C30.439 16.3561 30.1096 16.0035 29.9826 15.4578C29.7682 15.904 29.3924 16.349 28.6782 16.344C28.135 16.3403 27.5616 16.1011 27.2234 15.483C26.8332 16.2108 26.1977 16.3272 25.7898 16.3244C24.7534 16.3174 24.3956 15.7119 24.4021 14.8073L24.4142 13.1347C24.1735 13.2329 23.9114 13.3063 23.6578 13.3528ZM25.0001 4.82635C32.0501 4.82666 38.0065 9.50692 39.9393 15.9323L39.2176 16.0464C39.0429 16.074 38.8769 16.1256 38.7212 16.1954C38.024 13.9345 36.7845 11.9119 35.1527 10.2784C32.5525 7.67693 28.9669 6.07012 25.0001 6.06966C21.0331 6.07012 17.4474 7.67693 14.8473 10.2784C12.9979 12.1297 11.6522 14.4806 11.0292 17.1127C10.7892 16.9322 10.5349 16.7799 10.2745 16.6626C10.1494 16.6052 10.0235 16.5568 9.89756 16.5118C11.6379 9.79024 17.7392 4.82666 25.0001 4.82635ZM49.9975 24.4108C49.975 23.6366 49.5015 22.9459 48.7882 22.646C48.7048 22.6112 48.6199 22.5819 48.534 22.5591C48.5496 22.3804 48.5674 22.1895 48.5862 21.9922C48.6441 21.3581 48.71 20.6486 48.7109 19.9188C48.7103 19.515 48.6912 19.1033 48.6241 18.6739C48.4764 17.7015 48.0526 16.7492 47.2905 16.0835C46.5328 15.4123 45.5607 15.1524 44.7209 15.1601C44.45 15.1601 44.1865 15.1837 43.9301 15.2241C43.8877 15.2308 43.8435 15.2384 43.7983 15.2468L44.4595 14.2142L42.5022 13.4269L43.3758 11.5061L41.3261 11.0056L41.9174 8.97945L39.8193 8.77617L40.1165 6.68555L38.0094 6.78331L38.0074 4.67311L35.9361 5.07004L35.6332 2.98051L33.6392 3.6693L33.0423 1.6449L31.1664 2.60986L30.2874 0.690971L28.5684 1.91267L27.4255 0.138481L25.8971 1.59314L24.5142 7.62939e-06L23.2082 1.65686L21.612 0.276951L20.5567 2.10275L18.7803 0.964348L17.9936 2.92286L16.0747 2.04866L15.5743 4.09933L13.5498 3.5069L13.3473 5.60714L11.2584 5.31046L11.3559 7.4191L9.24737 7.42159L9.64335 9.4948L7.55672 9.79676L8.24372 11.7929L6.22045 12.3901L7.18465 14.268L5.26743 15.147L6.19514 16.454C5.11867 16.7279 4.161 17.2323 3.38843 17.8896C1.98305 19.083 1.16452 20.6682 0.670233 22.2554C0.178119 23.8514 0.00201877 25.4902 0 26.9724C0.00031058 27.8678 0.0663073 28.7044 0.183862 29.4507C0.451737 31.1143 0.935776 32.5316 1.95556 33.6351C2.46088 34.1787 3.09896 34.6022 3.78084 34.8568C4.4635 35.1141 5.17426 35.2136 5.88067 35.2136C6.35415 35.2133 6.83058 35.1698 7.31571 35.0931C8.15241 34.9564 9.03197 34.6641 9.89275 34.19L11.9899 34.0935L11.993 36.2033L14.0634 35.8071L14.3668 37.8954L16.3609 37.2086L16.9572 39.2326L18.8333 38.2676L19.7125 40.1865L21.4319 38.9642L22.5745 40.7393L24.1032 39.2845L25.4859 40.8784L26.7925 39.2214L28.3878 40.6013L29.4452 38.7749L31.2198 39.9133L32.0059 37.9552L33.9262 38.8294L34.4262 36.7795L36.45 37.3704L36.6537 35.2695L38.7425 35.5678L38.6442 33.4598L40.7534 33.4565L40.3571 31.3841L42.4443 31.0809L41.757 29.084L43.8578 28.4211C43.9435 28.4704 44.0315 28.5173 44.1229 28.5593C44.613 28.7873 45.1647 28.8981 45.7082 28.8968C45.9466 28.8968 46.1859 28.8768 46.4243 28.839C47.2749 28.7071 48.3011 28.1659 48.9726 27.4182C49.6498 26.6768 50.0096 25.6293 49.9998 24.5771C49.9998 24.5187 49.999 24.4635 49.9975 24.4108ZM33.6662 20.0293C32.0599 20.2832 31.5574 23.8523 31.8379 25.6307C32.0678 27.0867 32.6757 27.01 33.0162 26.9564C33.5642 26.8695 34.2683 26.1771 34.3219 25.044L34.5545 20.6258C34.5191 20.3989 34.2709 19.9337 33.6662 20.0293ZM29.1279 15.4036C29.4194 15.4053 29.7837 15.1259 29.7879 14.5617L29.804 12.3536C29.7646 12.2462 29.6357 11.9826 29.3135 11.9805C28.6595 11.9761 28.3994 13.1515 28.3934 13.9977C28.3833 15.3789 28.8762 15.4017 29.1279 15.4036ZM22.413 12.8969C22.415 12.6245 22.5166 12.489 22.668 12.4413C22.5301 12.0027 22.2894 11.9135 22.1383 11.9125C21.5448 11.9085 21.3047 13.0935 21.298 13.9982C21.2896 15.1655 21.6706 15.382 21.9723 15.3842C22.5458 15.388 22.7933 14.592 22.8008 13.532L22.8018 13.3859C22.4705 13.3155 22.4116 13.1206 22.413 12.8969ZM24.8922 21.6297C24.6273 21.6715 23.9999 21.8674 23.8306 22.1462L23.5491 27.1149C23.5358 27.2722 23.5404 27.4266 23.5615 27.559C23.6479 28.1077 24.0201 28.3781 24.7006 28.2707C25.9288 28.0764 26.4934 25.2731 26.1805 23.2871C26.0339 22.3603 25.5727 21.5223 24.8922 21.6297Z" fill="white"/>
</svg>
